The Thing Called Love 1993 [Director's Cut] DVDRip XviD titler


SOURCE: DVD-R (vobs only)

 
http://www.imdb.com/title/tt0108327/


- SAMPLE: Yes

- SUBTITLES: English, Serbian

- LANGUAGE: English


DIRECTOR: Peter Bogdanovich


CAST:
-------
River Phoenix, Samantha Mathis, Dermot Mulroney, Sandra Bullock, Anthony Clark


PLOT:
--------
Miranda Presley is an aspiring singer/songwriter from New York City who loves country music and decides to take her chances in Nashville, Tennessee, where she hopes to become a star. After arriving in Music City after a long bus ride, Miranda makes her way to the Bluebird Cafe, a local watering hole with a reputation as a showcase for new talent. The bar's owner, Lucy, takes a shine to the plucky newcomer and gives her a job as a waitress.


General
---------
Format : AVI
Format/Info : Audio Video Interleave
File size : 900 MiB
Duration : 1h 58mn
Overall bit rate : 1062 Kbps
Writing application : VirtualDubMod 1.5.10.3
Writing library : VirtualDubMod build 2550

Video
--------
Format : MPEG-4 Visual
Format profile : Advanced Simple@L5
Format settings, BVOP : 1
Format settings, QPel : No
Format settings, GMC : No warppoints
Format settings, Matrix : Custom
Codec ID : XVID
Codec ID/Hint : XviD
Duration : 1h 58mn
Bit rate : 927 Kbps
Width : 640 pixels
Height : 352 pixels
Display aspect ratio : 16:9
Frame rate : 25.000 fps
Color space : YUV
Chroma subsampling : 4:2:0
Bit depth : 8 bits
Scan type : Progressive
Compression mode : Lossy
Bits/(Pixel*Frame) : 0.165
Stream size : 785 MiB (87%)
Writing library : XviD 64

Audio
---------
Format : MPEG Audio
Format version : Version 1
Format profile : Layer 3
Mode : Joint stereo
Codec ID : 55
Codec ID/Hint : MP3
Duration : 1h 58mn
Bit rate mode : Constant
Bit rate : 128 Kbps
Channel(s) : 2 channels
Sampling rate : 48.0 KHz
Compression mode : Lossy
Stream size : 108 MiB (12%)
Alignment : Aligned on interleaves
Interleave, duration : 80 ms (2.00 video frames)
Interleave, preload duration : 504 ms
Writing library : LAME3.99.5
Language : English

